<?xml version="1.0" encoding="UTF-8" standalone="no" ?>
<!DOCTYPE svg PUBLIC "-//W3C//DTD SVG 1.1//EN" "http://www.w3.org/Graphics/SVG/1.1/DTD/svg11.dtd">
<svg xmlns="http://www.w3.org/2000/svg" xmlns:xlink="http://www.w3.org/1999/xlink" version="1.1" width="500" height="500" viewBox="0 0 500 500" xml:space="preserve">
<desc>Created with Fabric.js 5.3.0</desc>
<defs>
</defs>
<g transform="matrix(0.7453334076 0 0 1.0428745941 237.9248651986 230.2324245475)" id="90SgI_8DUk4A4TDaPp21x"  >
<path style="stroke: rgb(0,0,0); stroke-width: 3; stroke-dasharray: none; stroke-linecap: butt; stroke-dashoffset: 0; stroke-linejoin: miter; stroke-miterlimit: 4; fill: rgb(255,255,255); fill-rule: nonzero; opacity: 1;"  transform=" translate(0, 0)" d="M -55.00894 -32.46387 C -55.00894 -44.91517 -40.88568 -55.008939999999996 -23.46375 -55.008939999999996 L 23.46375 -55.008939999999996 L 23.46375 -55.008939999999996 C 40.88568 -55.008939999999996 55.00894 -44.915169999999996 55.00894 -32.46387 L 55.00894 32.46387 L 55.00894 32.46387 C 55.00894 44.91517 40.88568 55.008939999999996 23.46375 55.008939999999996 L -23.46375 55.008939999999996 L -23.46375 55.008939999999996 C -40.88568 55.008939999999996 -55.00894 44.915169999999996 -55.00894 32.46387 z" stroke-linecap="round" />
</g>
<g transform="matrix(0.6296506731 0 0 0.5522155176 237.9248651986 250.5574207882)" id="U8mYGNx5oj9QlBYCDBhmn"  >
<path style="stroke: rgb(0,0,0); stroke-width: 0; stroke-dasharray: none; stroke-linecap: butt; stroke-dashoffset: 0; stroke-linejoin: miter; stroke-miterlimit: 4; fill: rgb(177,200,232); fill-rule: nonzero; opacity: 1;"  transform=" translate(0, 0)" d="M -55.00894 -55.00894 L 55.00894 -55.00894 L 55.00894 22.257029999999993 L 55.00894 22.257029999999993 C 55.00894 40.345409999999994 42.14875000000001 55.008939999999996 26.284900000000004 55.008939999999996 L -26.284899999999997 55.008939999999996 L -26.284899999999997 55.008939999999996 C -42.14874999999999 55.008939999999996 -55.008939999999996 40.345409999999994 -55.008939999999996 22.257029999999993 z" stroke-linecap="round" />
</g>
<g transform="matrix(4.220587904 0 0 0.4859571806 236.8068643885 173.9888936242)" id="-lvi0t4dAzMUQOY-H1H-X"  >
<path style="stroke: rgb(0,0,0); stroke-width: 3; stroke-dasharray: none; stroke-linecap: butt; stroke-dashoffset: 0; stroke-linejoin: miter; stroke-miterlimit: 4; fill: rgb(255,255,255); fill-rule: nonzero; opacity: 1;" vector-effect="non-scaling-stroke"  transform=" translate(0, 0)" d="M -9.71429 -0.04505 C -9.71429 -5.3852199999999995 -9.21584 -9.71429 -8.60098 -9.71429 L 8.538900000000002 -9.71429 L 8.538900000000002 -9.71429 C 9.18804 -9.71429 9.714280000000002 -5.14388 9.714280000000002 0.4940099999999994 L 9.714280000000002 0.4940099999999994 L 9.714280000000002 0.4940099999999994 C 9.714280000000002 5.58623 9.238980000000002 9.714279999999999 8.652660000000003 9.714279999999999 L -8.598009999999997 9.714279999999999 L -8.598009999999997 9.714279999999999 C -9.214519999999997 9.714279999999999 -9.714299999999996 5.373649999999999 -9.714299999999996 0.019199999999997885 z" stroke-linecap="round" />
</g>
<g transform="matrix(1 0 0 1 225.0746185561 155.9080340598)" id="Kb4LpW4jOdngco_3BAZd_"  >
<path style="stroke: rgb(0,0,0); stroke-width: 2; stroke-dasharray: none; stroke-linecap: butt; stroke-dashoffset: 0; stroke-linejoin: miter; stroke-miterlimit: 4; fill: rgb(255,255,255); fill-rule: nonzero; opacity: 1;" vector-effect="non-scaling-stroke"  transform=" translate(-7.2192522147, -7.2192522147)" d="M 7.21925 0 C 11.20428 0 14.4385 3.23422 14.4385 7.21925 C 14.4385 11.20428 11.204279999999999 14.4385 7.21925 14.4385 C 3.2342199999999997 14.4385 0 11.204279999999999 0 7.21925 C 0 3.2342199999999997 3.23422 0 7.21925 0 z" stroke-linecap="round" />
</g>
<g transform="matrix(0.5658576626 0 0 0.5658576626 236.8068643885 139.9299177988)" id="Yo27msU8aoHEs8_jATSgE"  >
<path style="stroke: rgb(0,0,0); stroke-width: 2; stroke-dasharray: none; stroke-linecap: butt; stroke-dashoffset: 0; stroke-linejoin: miter; stroke-miterlimit: 4; fill: rgb(255,255,255); fill-rule: nonzero; opacity: 1;" vector-effect="non-scaling-stroke"  transform=" translate(0, 0)" d="M 0 -7.21925 C 3.98503 -7.21925 7.21925 -3.9850299999999996 7.21925 0 C 7.21925 3.98503 3.9850299999999996 7.21925 0 7.21925 C -3.98503 7.21925 -7.21925 3.9850299999999996 -7.21925 0 C -7.21925 -3.98503 -3.9850299999999996 -7.21925 0 -7.21925 z" stroke-linecap="round" />
</g>
<g transform="matrix(1 0 0 1 254.7391566434 234.4167422494)" id="P_1qKuC4XTgFhgPMz6t3r"  >
<path style="stroke: rgb(0,0,0); stroke-width: 0; stroke-dasharray: none; stroke-linecap: butt; stroke-dashoffset: 0; stroke-linejoin: miter; stroke-miterlimit: 4; fill: rgb(0,0,0); fill-rule: nonzero; opacity: 1;"  transform=" translate(-12.8472258215, -34.72222)" d="M 22.22223 0 L 25.69445 0 L 25.69445 12.84722 L 25.69445 12.84722 L 25.69445 16.31944 L 25.69445 16.31944 L 25.69445 32.98611 L 25.69445 32.98611 L 25.69445 36.45833 L 25.69445 36.45833 L 25.69445 54.375 L 25.69445 54.375 L 25.69445 57.84722 L 25.69445 57.84722 L 25.69445 69.44444 L 22.22223 69.44444 L 22.22223 57.84722 L 0 57.84722 L 0 54.375 L 22.22223 54.375 L 22.22223 36.458330000000004 L 0 36.458330000000004 L 0 32.986110000000004 L 22.22223 32.986110000000004 L 22.22223 16.319440000000004 L 0 16.319440000000004 L 0 12.847220000000004 L 22.22223 12.847220000000004 z" stroke-linecap="round" />
</g>
</svg>