<?xml version="1.0" encoding="UTF-8" standalone="no" ?>
<!DOCTYPE svg PUBLIC "-//W3C//DTD SVG 1.1//EN" "http://www.w3.org/Graphics/SVG/1.1/DTD/svg11.dtd">
<svg xmlns="http://www.w3.org/2000/svg" xmlns:xlink="http://www.w3.org/1999/xlink" version="1.1" width="500" height="500" viewBox="0 0 640 640" xml:space="preserve">
<desc>Created with Fabric.js 5.3.0</desc>
<defs>
</defs>
<g transform="matrix(1 0 0 1 289.6600979045 229.5807638953)" id="4x9nCu9CA_Hu8dWs2y5K1"  >
<path style="stroke: rgb(0,0,0); stroke-width: 3; stroke-dasharray: none; stroke-linecap: butt; stroke-dashoffset: 0; stroke-linejoin: miter; stroke-miterlimit: 4; fill: rgb(255,255,255); fill-rule: nonzero; opacity: 1;"  transform=" translate(-62.34568, -74.101295)" d="M 20.55678 42.27075 C 20.55678 18.925259999999998 39.48204 0 62.827529999999996 0 C 85.64079 0 104.1346 18.4938 104.1346 41.30707 L 104.1346 127.74375 L 115.56292 127.74375 C 120.60442 127.74375 124.69136 131.83069 124.69136 136.87219000000002 L 124.69136 139.72097000000002 C 124.69136 144.40524000000002 120.89401000000001 148.20259000000001 116.20974000000001 148.20259000000001 L 8.882520000000014 148.20259000000001 C 3.9768400000000135 148.20259000000001 1.4210854715202004e-14 144.22575 1.4210854715202004e-14 139.32007000000002 L 0.000010000000014210856 136.94756 C 0.000010000000014210856 131.86443 4.120700000000014 127.74375 9.203820000000015 127.74375 L 20.556780000000014 127.74375 z" stroke-linecap="round" />
</g>
<g transform="matrix(0.5941885844 0 0 1.7044610314 289.6600979045 353.8883730167)" id="uKy1kc8hetlOxIyyTDIu1"  >
<path style="stroke: rgb(0,0,0); stroke-width: 3; stroke-dasharray: none; stroke-linecap: butt; stroke-dashoffset: 0; stroke-linejoin: miter; stroke-miterlimit: 4; fill: rgb(255,255,255); fill-rule: nonzero; opacity: 1;" vector-effect="non-scaling-stroke"  transform=" translate(0, 0)" d="M -29.48718 -29.48718 L 29.48718 -29.48718 L 29.48718 22.123250000000002 L 29.48718 22.123250000000002 C 29.48718 26.190240000000003 20.029719999999998 29.487180000000002 8.363349999999997 29.487180000000002 L -6.9934600000000025 29.487180000000002 L -6.9934600000000025 29.487180000000002 C -19.416400000000003 29.487180000000002 -29.487180000000002 25.97643 -29.487180000000002 21.645690000000002 z" stroke-linecap="round" />
</g>
<g transform="matrix(1 0 0 1 289.6600979045 438.0307976247)" id="JEUDRXCX6A-nqVMpLJgIv"  >
<path style="stroke: rgb(0,0,0); stroke-width: 0; stroke-dasharray: none; stroke-linecap: butt; stroke-dashoffset: 0; stroke-linejoin: miter; stroke-miterlimit: 4; fill: rgb(177,200,232); fill-rule: nonzero; opacity: 1;"  transform=" translate(-10.3053395443, -10.3053395443)" d="M 10.30534 0 C 15.99389 0 20.61068 4.61679 20.61068 10.30534 C 20.61068 15.99389 15.993889999999999 20.61068 10.30534 20.61068 C 4.616789999999999 20.61068 0 15.993889999999999 0 10.30534 C 0 4.616789999999999 4.61679 0 10.30534 0 z" stroke-linecap="round" />
</g>
</svg>