<?xml version="1.0" encoding="UTF-8" standalone="no" ?>
<!DOCTYPE svg PUBLIC "-//W3C//DTD SVG 1.1//EN" "http://www.w3.org/Graphics/SVG/1.1/DTD/svg11.dtd">
<svg xmlns="http://www.w3.org/2000/svg" xmlns:xlink="http://www.w3.org/1999/xlink" version="1.1" width="500" height="500" viewBox="0 0 500 500" xml:space="preserve">
<desc>Created with Fabric.js 5.3.0</desc>
<defs>
</defs>
<g transform="matrix(1.5812500201 0 0 1 273.703041809 258.4973166369)" id="dnfNSOadsHGB876LGCgGu"  >
<path style="stroke: rgb(0,0,0); stroke-width: 3; stroke-dasharray: none; stroke-linecap: butt; stroke-dashoffset: 0; stroke-linejoin: miter; stroke-miterlimit: 4; fill: rgb(255,255,255); fill-rule: nonzero; opacity: 1;"  transform=" translate(0, 0)" d="M -71.55635 -71.55635 L 71.55635 -71.55635 L 71.55635 71.55635 L -71.55635 71.55635 z" stroke-linecap="round" />
</g>
<g transform="matrix(1 0 0 1 211.5384615385 258.4973166369)" id="FUj0FtchRgbzrKK3lat5Y"  >
<path style="stroke: rgb(0,0,0); stroke-width: 3; stroke-dasharray: none; stroke-linecap: butt; stroke-dashoffset: 0; stroke-linejoin: miter; stroke-miterlimit: 4; fill: rgb(255,255,255); fill-rule: nonzero; opacity: 1;"  transform=" translate(-29.516995, -29.516995)" d="M 0 0 L 59.03399 0 L 59.03399 59.03399 L 0 59.03399 z" stroke-linecap="round" />
</g>
<g transform="matrix(2.6562497534 0 0 0.156249999 328.2647617816 231.2164557925)" id="81iGnfg4AqDjFzz-T_9UK"  >
<path style="stroke: rgb(163,206,20); stroke-width: 0; stroke-dasharray: none; stroke-linecap: butt; stroke-dashoffset: 0; stroke-linejoin: miter; stroke-miterlimit: 4; fill: rgb(0,0,0); fill-rule: nonzero; opacity: 1;"  transform=" translate(0, 0)" d="M -14.31127 -14.31127 L 14.31127 -14.31127 L 14.31127 14.31127 L -14.31127 14.31127 z" stroke-linecap="round" />
</g>
<g transform="matrix(0.937500004 0 0 0.156249999 352.8622541695 247.7638640768)" id="cuBQVKNLv0F7lvyb_bwE6"  >
<path style="stroke: rgb(163,206,20); stroke-width: 0; stroke-dasharray: none; stroke-linecap: butt; stroke-dashoffset: 0; stroke-linejoin: miter; stroke-miterlimit: 4; fill: rgb(0,0,0); fill-rule: nonzero; opacity: 1;"  transform=" translate(0, 0)" d="M -14.31127 -14.31127 L 14.31127 -14.31127 L 14.31127 14.31127 L -14.31127 14.31127 z" stroke-linecap="round" />
</g>
<g transform="matrix(1.5312500134 0 0 0.156249999 344.3649373882 269.9999978319)" id="J-UZ_7PvvqB5tzWzX9kPk"  >
<path style="stroke: rgb(163,206,20); stroke-width: 0; stroke-dasharray: none; stroke-linecap: butt; stroke-dashoffset: 0; stroke-linejoin: miter; stroke-miterlimit: 4; fill: rgb(0,0,0); fill-rule: nonzero; opacity: 1;"  transform=" translate(0, 0)" d="M -14.31127 -14.31127 L 14.31127 -14.31127 L 14.31127 14.31127 L -14.31127 14.31127 z" stroke-linecap="round" />
</g>
</svg>