<?xml version="1.0" encoding="UTF-8" standalone="no" ?>
<!DOCTYPE svg PUBLIC "-//W3C//DTD SVG 1.1//EN" "http://www.w3.org/Graphics/SVG/1.1/DTD/svg11.dtd">
<svg xmlns="http://www.w3.org/2000/svg" xmlns:xlink="http://www.w3.org/1999/xlink" version="1.1" width="500" height="500" viewBox="0 0 500 500" xml:space="preserve">
<desc>Created with Fabric.js 5.3.0</desc>
<defs>
</defs>
<g transform="matrix(2.4077219521 0 0 2.4077219521 236.9742409371 231.8309881827)" id="9URNOgXUvegAUt9gaVAO1"  >
<g style=""   >
		<g transform="matrix(1 0 0 1 0 0)" id="x-yUItD8wYP6eBsu5Tu6k"  >
<path style="stroke: none; stroke-width: 1; stroke-dasharray: none; stroke-linecap: butt; stroke-dashoffset: 0; stroke-linejoin: miter; stroke-miterlimit: 4; fill: rgb(179,181,179); fill-rule: nonzero; opacity: 1;"  transform=" translate(-39.951507688, -40)" d="M 74.6 54 L 74.6 20 C 74.6 16.2 71.5 13.2 67.8 13.2 L 12.3 13.2 C 8.5 13.2 5.500000000000001 16.3 5.500000000000001 20 L 5.500000000000001 54 C 2.4 54.5 0 57.2 0 60.4 C 0 63.9 2.9 66.8 6.4 66.8 L 73.5 66.8 C 77 66.8 79.9 63.9 79.9 60.4 C 80 57.2 77.6 54.5 74.6 54 z" stroke-linecap="round" />
</g>
		<g transform="matrix(1 0 0 1 0.048492312 20.3957620728)" id="-8FPABCXh_R84-3NgA016"  >
<path style="stroke: none; stroke-width: 1; stroke-dasharray: none; stroke-linecap: butt; stroke-dashoffset: 0; stroke-linejoin: miter; stroke-miterlimit: 4; fill: rgb(255,255,255); fill-rule: nonzero; opacity: 1;"  transform=" translate(-40, -60.3957620728)" d="M 75.2 60.4 C 75.2 61.3 74.5 62 73.60000000000001 62 L 6.4 62 C 5.5 62 4.800000000000001 61.3 4.800000000000001 60.4 C 4.800000000000001 59.5 5.500000000000001 58.8 6.4 58.8 L 73.5 58.8 C 74.5 58.7 75.2 59.5 75.2 60.4 z" stroke-linecap="round" />
</g>
		<g transform="matrix(1 0 0 1 0.048492312 -4.05)" id="Y6WRcWDsLeT42Z5NC2iU5"  >
<path style="stroke: none; stroke-width: 1; stroke-dasharray: none; stroke-linecap: butt; stroke-dashoffset: 0; stroke-linejoin: miter; stroke-miterlimit: 4; fill: rgb(255,255,255); fill-rule: nonzero; opacity: 1;"  transform=" translate(-40, -35.95)" d="M 69.7 20 L 69.7 51.9 C 69.7 53 68.8 53.9 67.7 53.9 L 12.3 53.9 C 11.200000000000001 53.9 10.3 53 10.3 51.9 L 10.3 20 C 10.3 18.9 11.200000000000001 18 12.3 18 L 67.8 18 C 68.8 18 69.7 18.9 69.7 20 z" stroke-linecap="round" />
</g>
		<g transform="matrix(1 0 0 1 0.048492312 -4.05)" id="vaxKWGAncJLwe1WWc_9lG"  >
<path style="stroke: none; stroke-width: 1; stroke-dasharray: none; stroke-linecap: butt; stroke-dashoffset: 0; stroke-linejoin: miter; stroke-miterlimit: 4; fill: rgb(179,181,179); fill-rule: nonzero; opacity: 1;"  transform=" translate(-40, -35.95)" d="M 66.2 24.2 L 66.2 47.7 C 66.2 49.5 64.8 50.900000000000006 63 50.900000000000006 L 17 50.900000000000006 C 15.2 50.900000000000006 13.8 49.50000000000001 13.8 47.7 L 13.8 24.2 C 13.8 22.4 15.200000000000001 21 17 21 L 63 21 C 64.7 21 66.2 22.4 66.2 24.2 z" stroke-linecap="round" />
</g>
</g>
</g>
</svg>