<?xml version="1.0" encoding="UTF-8" standalone="no" ?>
<!DOCTYPE svg PUBLIC "-//W3C//DTD SVG 1.1//EN" "http://www.w3.org/Graphics/SVG/1.1/DTD/svg11.dtd">
<svg xmlns="http://www.w3.org/2000/svg" xmlns:xlink="http://www.w3.org/1999/xlink" version="1.1" width="500" height="500" viewBox="0 0 500 500" xml:space="preserve">
<desc>Created with Fabric.js 5.3.0</desc>
<defs>
</defs>
<g transform="matrix(1 0 0 1 197.2271914132 204.8300536673)" id="hIHAPp6DWJZgVBOQzfueb"  >
<path style="stroke: rgb(0,0,0); stroke-width: 3; stroke-dasharray: none; stroke-linecap: butt; stroke-dashoffset: 0; stroke-linejoin: miter; stroke-miterlimit: 4; fill: rgb(255,255,255); fill-rule: nonzero; opacity: 1;" vector-effect="non-scaling-stroke"  transform=" translate(-44.722716042, -44.722716042)" d="M 44.72272 0 C 69.40966 0 89.44544 20.03578 89.44544 44.72272 C 89.44544 69.40966 69.40966 89.44544 44.72272 89.44544 C 20.035780000000003 89.44544 0 69.40966 0 44.72272 C 0 20.035780000000003 20.03578 0 44.72272 0 z" stroke-linecap="round" />
</g>
<g transform="matrix(0.1486219346 -0.1119946608 0.8361049221 1.1095487072 243.4499074552 259.5336531291)" id="Gkzp1ITaKwMX_3Se-fTPA"  >
<path style="stroke: rgb(0,0,0); stroke-width: 3; stroke-dasharray: none; stroke-linecap: butt; stroke-dashoffset: 0; stroke-linejoin: miter; stroke-miterlimit: 4; fill: rgb(255,255,255); fill-rule: nonzero; opacity: 1;" vector-effect="non-scaling-stroke"  transform=" translate(0, 0)" d="M -19.23077 -19.23077 L 19.23077 -19.23077 L 19.23077 16.879649999999998 L 19.23077 16.879649999999998 C 19.23077 18.17814 11.37224 19.23078 1.6782499999999985 19.23078 L -0.7710900000000014 19.23078 L -0.7710900000000014 19.23078 C -10.966090000000001 19.23078 -19.23077 18.123739999999998 -19.23077 16.758139999999997 z" stroke-linecap="round" />
</g>
<g transform="matrix(0.8612052139 0 0 0.8612052139 197.2271914132 204.8300536673)" id="r1E8m1duX1Rt5kQ0TkEL5"  >
<path style="stroke: rgb(177,200,232); stroke-width: 0; stroke-dasharray: none; stroke-linecap: butt; stroke-dashoffset: 0; stroke-linejoin: miter; stroke-miterlimit: 4; fill: rgb(177,200,232); fill-rule: nonzero; opacity: 1;" vector-effect="non-scaling-stroke"  transform=" translate(0, 0)" d="M 0 -44.72272 C 24.68694 -44.72272 44.72272 -24.686940000000003 44.72272 0 C 44.72272 24.68694 24.686940000000003 44.72272 0 44.72272 C -24.68694 44.72272 -44.72272 24.686940000000003 -44.72272 0 C -44.72272 -24.68694 -24.686940000000003 -44.72272 0 -44.72272 z" stroke-linecap="round" />
</g>
<g transform="matrix(0.1062064318 0 0 0.1062064318 174.887448021 200.080213605)" id="_wHXnehPFXHDPdISbyPCA"  >
<path style="stroke: rgb(0,0,0); stroke-width: 0; stroke-dasharray: none; stroke-linecap: butt; stroke-dashoffset: 0; stroke-linejoin: miter; stroke-miterlimit: 4; fill: rgb(255,255,255); fill-rule: nonzero; opacity: 1;" vector-effect="non-scaling-stroke"  transform=" translate(0, 0)" d="M 0 -44.72272 C 24.68694 -44.72272 44.72272 -24.686940000000003 44.72272 0 C 44.72272 24.68694 24.686940000000003 44.72272 0 44.72272 C -24.68694 44.72272 -44.72272 24.686940000000003 -44.72272 0 C -44.72272 -24.68694 -24.686940000000003 -44.72272 0 -44.72272 z" stroke-linecap="round" />
</g>
<g transform="matrix(0.025783948 0 0 0.025783948 178.4841599038 191.1798148086)" id="magSwFLVO3bU--hXYlqbi"  >
<path style="stroke: rgb(0,0,0); stroke-width: 0; stroke-dasharray: none; stroke-linecap: butt; stroke-dashoffset: 0; stroke-linejoin: miter; stroke-miterlimit: 4; fill: rgb(255,255,255); fill-rule: nonzero; opacity: 1;" vector-effect="non-scaling-stroke"  transform=" translate(0, 0)" d="M 0 -44.72272 C 24.68694 -44.72272 44.72272 -24.686940000000003 44.72272 0 C 44.72272 24.68694 24.686940000000003 44.72272 0 44.72272 C -24.68694 44.72272 -44.72272 24.686940000000003 -44.72272 0 C -44.72272 -24.68694 -24.686940000000003 -44.72272 0 -44.72272 z" stroke-linecap="round" />
</g>
</svg>