<?xml version="1.0" encoding="UTF-8" standalone="no" ?>
<!DOCTYPE svg PUBLIC "-//W3C//DTD SVG 1.1//EN" "http://www.w3.org/Graphics/SVG/1.1/DTD/svg11.dtd">
<svg xmlns="http://www.w3.org/2000/svg" xmlns:xlink="http://www.w3.org/1999/xlink" version="1.1" width="500" height="500" viewBox="0 0 500 500" xml:space="preserve">
<desc>Created with Fabric.js 5.3.0</desc>
<defs>
</defs>
<g transform="matrix(1.0620998609 0 0 1.0132649266 249.4999990289 290.0459875416)" id="LCKuTmslnakrgSYkVzt1z"  >
<path style="stroke: rgb(0,0,0); stroke-width: 3; stroke-dasharray: none; stroke-linecap: butt; stroke-dashoffset: 0; stroke-linejoin: miter; stroke-miterlimit: 4; fill: rgb(255,255,255); fill-rule: nonzero; opacity: 1;"  transform=" translate(-17.88909, -87.91899)" d="M 0 0 L 35.77818 0 L 35.77818 157.94887 L 35.77818 157.94887 C 35.77818 157.94887 35.77818 157.94888 35.77818 157.94888 C 35.77818 167.82366 27.763869999999997 175.83798000000002 17.88909 175.83798000000002 C 8.01431 175.83798000000002 0 167.82366000000002 0 157.94888000000003 C 0 157.94644000000002 0 157.94401000000002 0 157.94157000000004 z" stroke-linecap="round" />
</g>
<g transform="matrix(0.7825998975 0 0 0.5378462605 249.4999990289 323.9253921201)" id="7TUyWKhwJjL_3pyyrKgR5"  >
<path style="stroke: rgb(81,0,78); stroke-width: 0; stroke-dasharray: none; stroke-linecap: butt; stroke-dashoffset: 0; stroke-linejoin: miter; stroke-miterlimit: 4; fill: rgb(177,200,232); fill-rule: nonzero; opacity: 1;"  transform=" translate(0, 0)" d="M -17.88909 -87.91899 L 17.88909 -87.91899 L 17.88909 70.02988 L 17.88909 70.02988 L 17.88909 70.02989000000001 C 17.88909 79.90467000000001 9.87478 87.91899000000001 0 87.91899000000001 C -9.87478 87.91899000000001 -17.88909 79.90467000000001 -17.88909 70.02989000000001 C -17.88909 70.02745 -17.88909 70.02502000000001 -17.88909 70.02258 z" stroke-linecap="round" />
</g>
<g transform="matrix(-0.0226632979 0.6489919392 -0.6489919392 -0.0226632979 247.2444394475 284.7104789348)" id="MI_ol_Q5JsGrFlsHGYL7C"  >
<path style="stroke: rgb(99,48,18); stroke-width: 0; stroke-dasharray: none; stroke-linecap: butt; stroke-dashoffset: 0; stroke-linejoin: miter; stroke-miterlimit: 4; fill: rgb(255,255,255); fill-rule: nonzero; opacity: 1;"  transform=" translate(0, 0)" d="M 0 -3.35821 C 1.85373 -3.35821 3.35821 -1.85373 3.35821 0 C 3.35821 1.85373 1.85373 3.35821 0 3.35821 C -1.85373 3.35821 -3.35821 1.85373 -3.35821 0 C -3.35821 -1.85373 -1.85373 -3.35821 0 -3.35821 z" stroke-linecap="round" />
</g>
<g transform="matrix(-0.9927979641 1.5287748011 -1.5287748011 -0.9927979641 242.7333205323 299.0034784493)" id="mzwcqLTnS-RSNRiMkZRuD"  >
<path style="stroke: rgb(86,6,243); stroke-width: 0; stroke-dasharray: none; stroke-linecap: butt; stroke-dashoffset: 0; stroke-linejoin: miter; stroke-miterlimit: 4; fill: rgb(255,255,255); fill-rule: nonzero; opacity: 1;"  transform=" translate(0, 0)" d="M 0 -2.36318 C 1.30448 -2.36318 2.36318 -1.3044699999999998 2.36318 0 C 2.36318 1.30448 1.3044699999999998 2.36318 0 2.36318 C -1.30448 2.36318 -2.36318 1.3044699999999998 -2.36318 0 C -2.36318 -1.30448 -1.3044699999999998 -2.36318 0 -2.36318 z" stroke-linecap="round" />
</g>
<g transform="matrix(0.163694469 0 0 0.163694469 252.3081852085 258.3125024768)" id="ciakQyFn4SFn5PzctOH1s"  >
<path style="stroke: rgb(57,66,83); stroke-width: 0; stroke-dasharray: none; stroke-linecap: butt; stroke-dashoffset: 0; stroke-linejoin: miter; stroke-miterlimit: 4; fill: rgb(177,200,232); fill-rule: nonzero; opacity: 1;"  transform=" translate(0, 0)" d="M 0 -26.31579 C 14.52632 -26.31579 26.31579 -14.52631 26.31579 0 C 26.31579 14.52632 14.52631 26.31579 0 26.31579 C -14.52632 26.31579 -26.31579 14.52631 -26.31579 0 C -26.31579 -14.52632 -14.52631 -26.31579 0 -26.31579 z" stroke-linecap="round" />
</g>
<g transform="matrix(-0.0226632979 0.6489919392 -0.6489919392 -0.0226632979 250.2559945422 293.0445400904)" id="4oWhb2N6uorzkLaONqJyY"  >
<path style="stroke: rgb(99,48,18); stroke-width: 0; stroke-dasharray: none; stroke-linecap: butt; stroke-dashoffset: 0; stroke-linejoin: miter; stroke-miterlimit: 4; fill: rgb(255,255,255); fill-rule: nonzero; opacity: 1;"  transform=" translate(0, 0)" d="M 0 -3.35821 C 1.85373 -3.35821 3.35821 -1.85373 3.35821 0 C 3.35821 1.85373 1.85373 3.35821 0 3.35821 C -1.85373 3.35821 -3.35821 1.85373 -3.35821 0 C -3.35821 -1.85373 -1.85373 -3.35821 0 -3.35821 z" stroke-linecap="round" />
</g>
<g transform="matrix(-0.0226632979 0.6489919392 -0.6489919392 -0.0226632979 244.988879866 247.7444406663)" id="YzpaE4W0EcINsWaxd3iVs"  >
<path style="stroke: rgb(99,48,18); stroke-width: 0; stroke-dasharray: none; stroke-linecap: butt; stroke-dashoffset: 0; stroke-linejoin: miter; stroke-miterlimit: 4; fill: rgb(177,200,232); fill-rule: nonzero; opacity: 1;"  transform=" translate(0, 0)" d="M 0 -3.35821 C 1.85373 -3.35821 3.35821 -1.85373 3.35821 0 C 3.35821 1.85373 1.85373 3.35821 0 3.35821 C -1.85373 3.35821 -3.35821 1.85373 -3.35821 0 C -3.35821 -1.85373 -1.85373 -3.35821 0 -3.35821 z" stroke-linecap="round" />
</g>
<g transform="matrix(1 0 0 1 245.0964803148 168.3252589804)" id="lwpAgjvMiDzPSD7-XjI-Z"  >
<path style="stroke: rgb(0,0,0); stroke-width: 3; stroke-dasharray: none; stroke-linecap: butt; stroke-dashoffset: 0; stroke-linejoin: miter; stroke-miterlimit: 4; fill: rgb(255,255,255); fill-rule: nonzero; opacity: 1;"  transform=" translate(-16.1472220473, -16.825944351)" d="M 1.69348 21.26525 C 4.3346 18.00374 9.12514 17.500230000000002 12.38665 20.141350000000003 C 15.648159999999999 22.782470000000004 16.15167 27.573010000000004 13.510549999999999 30.834520000000005 C 10.869429999999998 34.096030000000006 6.078889999999999 34.599540000000005 2.817379999999998 31.958420000000004 C -0.4441300000000017 29.317300000000003 -0.9476400000000016 24.526760000000003 1.6934799999999983 21.26525 z M 14.69832 1.71509 C 16.30612 -0.27038000000000006 19.22239 -0.5768800000000001 21.20785 1.03091 C 23.19332 2.6387099999999997 23.49982 5.5549800000000005 21.892030000000002 7.54044 C 20.28423 9.52591 17.367960000000004 9.83241 15.382500000000002 8.22462 C 13.397030000000003 6.61682 13.090530000000001 3.70055 14.698320000000002 1.71509 z M 24.06982 18.95357 C 25.67762 16.9681 28.593890000000002 16.6616 30.579349999999998 18.269389999999998 C 32.56482 19.87719 32.87132 22.793459999999996 31.26353 24.77892 C 29.65573 26.76439 26.73946 27.07089 24.753999999999998 25.4631 C 22.76853 23.8553 22.46203 20.939030000000002 24.069819999999996 18.95357 z" stroke-linecap="round" />
</g>
</svg>